<svg xmlns="http://www.w3.org/2000/svg" width="100%" viewBox="0 0 165 32" fill="none">
              <path fill-rule="evenodd" clip-rule="evenodd" d="M0.337554 0.0761153C0.0789088 0.195227 -0.0263441 0.407152 0.0160722 0.723279C0.0441573 0.932893 0.662081 1.55848 15.4959 16.3955C23.9936 24.8952 31.0102 31.8834 31.0881 31.9248C31.3089 32.0422 31.5717 32.0195 31.7526 31.8672C31.9609 31.6919 32.0491 31.4262 31.9743 31.1997C31.934 31.0774 27.5199 26.6311 16.4183 15.5298C7.89343 7.0052 0.883244 0.0301816 0.84004 0.0297616C0.796837 0.0293942 0.714261 0.0174778 0.656516 0.00330404C0.598771 -0.0108697 0.455249 0.0218875 0.337554 0.0761153ZM31.1826 0.0134882C31.015 0.0451954 19.5664 11.4726 19.4442 11.7302C19.2264 12.1891 19.6299 12.7008 20.1349 12.6061C20.2976 12.5756 21.0274 11.8672 25.5428 7.35686L30.7626 2.14286V11.5359C30.7626 21.8899 30.7379 21.1417 31.0871 21.3223C31.2882 21.4263 31.6159 21.3947 31.7714 21.2562C32.0347 21.0218 32.0225 21.531 32.0225 10.6871C32.0225 -0.279174 32.0377 0.303473 31.7486 0.114069C31.6038 0.0192627 31.3711 -0.0221037 31.1826 0.0134882ZM0.302855 9.61432C-0.0219346 9.79055 0.000323406 8.96984 0.000323406 20.7602C0.000323406 27.6236 0.0188542 31.5697 0.0515064 31.6555C0.120223 31.8362 0.401598 31.9998 0.64418 32C0.796154 32.0002 0.887076 31.9587 1.0379 31.8205L1.23397 31.6408L1.26021 21.6888L1.28646 11.7368L5.95855 16.4142C8.52821 18.9868 10.7228 21.1602 10.8354 21.2439C11.1421 21.472 11.3968 21.456 11.6605 21.1923C11.8732 20.9796 11.9158 20.8035 11.8172 20.5442C11.7726 20.427 1.16866 9.77853 0.929912 9.61133C0.787282 9.51143 0.489896 9.51285 0.302855 9.61432Z" fill="url(#paint0_linear_113_15)"></path>
              <path d="M40.0227 26.4V6.8H42.2627L50.4107 20.212H48.9547L57.1027 6.8H59.3427V26.4H56.1227V12.456L56.8507 12.652L50.8027 22.592H48.5627L42.5147 12.652L43.2427 12.456V26.4H40.0227Z" fill="white"></path>
              <path d="M66.953 26.54L61.213 12.96H64.601L68.521 22.928H67.541L71.685 12.96H75.101L68.857 26.54H66.953ZM62.949 32L67.121 23.404L68.857 26.54L66.365 32H62.949Z" fill="white"></path>
              <path d="M89.9572 26.4L84.1892 17.664H83.6012L75.8452 6.8H79.6532L85.4492 15.032H86.0372L93.7092 26.4H89.9572ZM75.5092 26.4L82.9572 15.928L85.1692 17.804L79.1212 26.4H75.5092ZM86.2612 17.02L84.0492 15.144L89.7612 6.8H93.3732L86.2612 17.02Z" fill="white"></path>
              <path d="M99.2484 26.68C98.5017 26.68 97.7831 26.5867 97.0924 26.4C96.4017 26.1947 95.7671 25.9147 95.1884 25.56C94.6097 25.1867 94.1057 24.7387 93.6764 24.216L95.6364 22.256C96.1031 22.7973 96.6351 23.208 97.2324 23.488C97.8484 23.7493 98.5391 23.88 99.3044 23.88C99.9951 23.88 100.518 23.7773 100.872 23.572C101.227 23.3667 101.404 23.068 101.404 22.676C101.404 22.2653 101.236 21.948 100.9 21.724C100.564 21.5 100.126 21.3133 99.5844 21.164C99.0617 20.996 98.5017 20.828 97.9044 20.66C97.3257 20.492 96.7657 20.268 96.2244 19.988C95.7017 19.6893 95.2724 19.288 94.9364 18.784C94.6004 18.28 94.4324 17.6267 94.4324 16.824C94.4324 15.9653 94.6284 15.228 95.0204 14.612C95.4311 13.996 96.0004 13.52 96.7284 13.184C97.4751 12.848 98.3617 12.68 99.3884 12.68C100.471 12.68 101.423 12.876 102.244 13.268C103.084 13.6413 103.784 14.2107 104.344 14.976L102.384 16.936C101.992 16.4507 101.544 16.0867 101.04 15.844C100.536 15.6013 99.9577 15.48 99.3044 15.48C98.6884 15.48 98.2124 15.5733 97.8764 15.76C97.5404 15.9467 97.3724 16.2173 97.3724 16.572C97.3724 16.9453 97.5404 17.2347 97.8764 17.44C98.2124 17.6453 98.6417 17.8227 99.1644 17.972C99.7057 18.1213 100.266 18.2893 100.844 18.476C101.442 18.644 102.002 18.8867 102.524 19.204C103.066 19.5027 103.504 19.9133 103.84 20.436C104.176 20.94 104.344 21.6027 104.344 22.424C104.344 23.7307 103.887 24.7667 102.972 25.532C102.058 26.2973 100.816 26.68 99.2484 26.68Z" fill="white"></path>
              <path d="M113.52 26.68C112.493 26.68 111.578 26.4653 110.776 26.036C109.973 25.588 109.338 24.9813 108.872 24.216C108.424 23.4507 108.2 22.5827 108.2 21.612V17.748C108.2 16.7773 108.433 15.9093 108.9 15.144C109.366 14.3787 110.001 13.7813 110.804 13.352C111.606 12.904 112.512 12.68 113.52 12.68C114.733 12.68 115.825 12.9973 116.796 13.632C117.785 14.248 118.56 15.088 119.12 16.152C119.698 17.1973 119.988 18.3827 119.988 19.708C119.988 21.0147 119.698 22.2 119.12 23.264C118.56 24.3093 117.785 25.14 116.796 25.756C115.825 26.372 114.733 26.68 113.52 26.68ZM106.324 32V12.96H109.404V16.572L108.872 19.848L109.404 23.096V32H106.324ZM113.016 23.768C113.762 23.768 114.416 23.6 114.976 23.264C115.554 22.9093 116.002 22.424 116.32 21.808C116.656 21.192 116.824 20.4827 116.824 19.68C116.824 18.8773 116.656 18.168 116.32 17.552C116.002 16.936 115.554 16.46 114.976 16.124C114.416 15.7693 113.762 15.592 113.016 15.592C112.269 15.592 111.606 15.7693 111.028 16.124C110.449 16.46 110.001 16.936 109.684 17.552C109.366 18.168 109.208 18.8773 109.208 19.68C109.208 20.4827 109.366 21.192 109.684 21.808C110.001 22.424 110.449 22.9093 111.028 23.264C111.606 23.6 112.269 23.768 113.016 23.768Z" fill="white"></path>
              <path d="M128.25 26.68C126.906 26.68 125.692 26.3813 124.61 25.784C123.546 25.168 122.696 24.328 122.062 23.264C121.446 22.2 121.138 21.0053 121.138 19.68C121.138 18.3547 121.446 17.1693 122.062 16.124C122.678 15.06 123.508 14.22 124.554 13.604C125.618 12.988 126.794 12.68 128.082 12.68C129.332 12.68 130.434 12.9693 131.386 13.548C132.356 14.1267 133.112 14.92 133.654 15.928C134.214 16.936 134.494 18.084 134.494 19.372C134.494 19.596 134.475 19.8293 134.438 20.072C134.419 20.296 134.382 20.548 134.326 20.828H123.294V18.308H132.73L131.582 19.316C131.544 18.4947 131.386 17.804 131.106 17.244C130.826 16.684 130.424 16.2547 129.902 15.956C129.398 15.6573 128.772 15.508 128.026 15.508C127.242 15.508 126.56 15.676 125.982 16.012C125.403 16.348 124.955 16.824 124.638 17.44C124.32 18.0373 124.162 18.756 124.162 19.596C124.162 20.436 124.33 21.1733 124.666 21.808C125.002 22.4427 125.478 22.9373 126.094 23.292C126.71 23.628 127.419 23.796 128.222 23.796C128.912 23.796 129.547 23.6747 130.126 23.432C130.723 23.1893 131.227 22.8347 131.638 22.368L133.598 24.356C132.944 25.1213 132.151 25.7 131.218 26.092C130.284 26.484 129.295 26.68 128.25 26.68Z" fill="white"></path>
              <path d="M145.615 26.4V18.644C145.615 17.748 145.326 17.0107 144.747 16.432C144.187 15.8533 143.459 15.564 142.563 15.564C141.966 15.564 141.434 15.6947 140.967 15.956C140.5 16.2173 140.136 16.5813 139.875 17.048C139.614 17.5147 139.483 18.0467 139.483 18.644L138.279 17.972C138.279 16.9453 138.503 16.04 138.951 15.256C139.399 14.4533 140.015 13.828 140.799 13.38C141.602 12.9133 142.498 12.68 143.487 12.68C144.495 12.68 145.391 12.9413 146.175 13.464C146.959 13.968 147.575 14.6307 148.023 15.452C148.471 16.2547 148.695 17.0947 148.695 17.972V26.4H145.615ZM136.403 26.4V12.96H139.483V26.4H136.403Z" fill="white"></path>
              <path d="M156.893 26.68C155.679 26.68 154.578 26.372 153.589 25.756C152.618 25.14 151.843 24.3093 151.265 23.264C150.705 22.2 150.425 21.0147 150.425 19.708C150.425 18.3827 150.705 17.1973 151.265 16.152C151.843 15.088 152.618 14.248 153.589 13.632C154.578 12.9973 155.679 12.68 156.893 12.68C157.919 12.68 158.825 12.904 159.609 13.352C160.411 13.7813 161.046 14.3787 161.513 15.144C161.979 15.9093 162.213 16.7773 162.213 17.748V21.612C162.213 22.5827 161.979 23.4507 161.513 24.216C161.065 24.9813 160.439 25.588 159.637 26.036C158.834 26.4653 157.919 26.68 156.893 26.68ZM157.397 23.768C158.162 23.768 158.825 23.6 159.385 23.264C159.963 22.9093 160.411 22.424 160.729 21.808C161.046 21.192 161.205 20.4827 161.205 19.68C161.205 18.8773 161.046 18.168 160.729 17.552C160.411 16.936 159.963 16.46 159.385 16.124C158.825 15.7693 158.162 15.592 157.397 15.592C156.65 15.592 155.987 15.7693 155.409 16.124C154.849 16.46 154.401 16.936 154.065 17.552C153.747 18.168 153.589 18.8773 153.589 19.68C153.589 20.4827 153.747 21.192 154.065 21.808C154.401 22.424 154.849 22.9093 155.409 23.264C155.987 23.6 156.65 23.768 157.397 23.768ZM164.089 26.4H161.009V22.788L161.541 19.512L161.009 16.264V6.24001H164.089V26.4Z" fill="white"></path>
              <defs>
                <linearGradient id="paint0_linear_113_15" x1="0" y1="0" x2="32" y2="33.5" gradientUnits="userSpaceOnUse">
                  <stop stop-color="#F7744B"></stop>
                  <stop offset="1" stop-color="#FDD494"></stop>
                </linearGradient>
              </defs>
            </svg>